<?xml version="1.0" encoding="iso-8859-1"?>
<!-- Generator: Adobe Illustrator 21.0.0, SVG Export Plug-In . SVG Version: 6.00 Build 0)  -->
<svg version="1.1" id="Layer_1" xmlns="http://www.w3.org/2000/svg" xmlns:xlink="http://www.w3.org/1999/xlink" x="0px" y="0px"
	 viewBox="0 0 40 40" style="enable-background:new 0 0 40 40;" xml:space="preserve">
<g>
	<rect x="34.5" y="36.5" style="fill:#FFEEA3;" width="2" height="2"/>
	<path style="fill:#BA9B48;" d="M36,37v1h-1v-1H36 M37,36h-3v3h3V36L37,36z"/>
</g>
<g>
	<rect x="3.5" y="36.5" style="fill:#FFEEA3;" width="2" height="2"/>
	<path style="fill:#BA9B48;" d="M5,37v1H4v-1H5 M6,36H3v3h3V36L6,36z"/>
</g>
<g>
	<path style="fill-rule:evenodd;clip-rule:evenodd;fill:#F88F8F;" d="M27.703,10.5c-0.022-0.059-0.047-0.125-0.075-0.199
		c-0.058-0.15-0.116-0.296-0.134-0.372C27.5,6.294,24.276,3.5,20,3.5s-7.5,2.794-7.5,6.5c0,0,0,0-0.001,0
		c-0.013,0-0.076,0.142-0.138,0.287c-0.034,0.08-0.063,0.15-0.089,0.213H10.5c0-0.114,0.002-0.5,0.002-0.5
		c0-4.607,4.349-8.5,9.498-8.5s9.498,3.893,9.498,8.5c0,0,0.001,0.382,0.002,0.5H27.703z"/>
	<g>
		<path style="fill:#C74343;" d="M20,2c4.877,0,8.998,3.664,8.998,8h-0.95c-0.018-0.047-0.035-0.092-0.049-0.131
			C27.924,5.944,24.511,3,20,3c-4.504,0-7.914,2.935-7.998,6.852C11.984,9.896,11.963,9.947,11.94,10h-0.938
			C11.002,5.664,15.123,2,20,2 M20,1c-5.262,0-9.998,4-9.998,9c0,0.123-0.005,0.878,0,1h2.631C12.626,10.878,13,10.123,13,10
			c0-3.5,3.032-6,7-6c3.967,0,7,2.5,7,6c0,0.123,0.339,0.878,0.332,1h2.666c0.005-0.122,0-0.877,0-1C29.998,5,25.262,1,20,1L20,1z"
			/>
	</g>
</g>
<g>
	<path style="fill:#FFEEA3;" d="M9.015,11.5c0.139-1.124,1.2-2,2.485-2s2.346,0.876,2.485,2H9.015z"/>
	<path style="fill:#BA9B48;" d="M11.5,10c0.796,0,1.485,0.409,1.807,1H9.693C10.015,10.409,10.704,10,11.5,10 M11.5,9
		c-1.657,0-3,1.231-3,2.75c0,0.084,0.006,0.168,0.014,0.25h5.972c0.008-0.082,0.014-0.166,0.014-0.25C14.5,10.231,13.157,9,11.5,9
		L11.5,9z"/>
</g>
<g>
	<path style="fill:#FFEEA3;" d="M26.515,11.5c0.139-1.124,1.2-2,2.485-2s2.346,0.876,2.485,2H26.515z"/>
	<path style="fill:#BA9B48;" d="M29,10c0.796,0,1.485,0.409,1.807,1h-3.614C27.515,10.409,28.204,10,29,10 M29,9
		c-1.657,0-3,1.231-3,2.75c0,0.084,0.006,0.168,0.014,0.25h5.972C31.994,11.918,32,11.834,32,11.75C32,10.231,30.657,9,29,9L29,9z"
		/>
</g>
<g>
	<path style="fill:#C0B3DF;" d="M19.736,26.486c-8.349,0-16.244-2.317-18.144-2.916L4.45,11.5H35.55l2.855,12.063
		C36.428,24.155,28.109,26.486,19.736,26.486z"/>
	<g>
		<path style="fill:#8B75A1;" d="M35.155,12l2.655,11.217c-2.558,0.739-10.288,2.769-18.074,2.769
			c-7.738,0-15.092-2.011-17.549-2.756L4.845,12H35.155 M35.946,11H4.054L1,23.904c0,0,8.997,3.082,18.736,3.082
			S39,23.904,39,23.904L35.946,11L35.946,11z"/>
	</g>
</g>
<g>
	<polygon style="fill:#C0B3DF;" points="1.561,36.5 4.446,11.5 35.554,11.5 38.439,36.5 	"/>
	<g>
		<path style="fill:#8B75A1;" d="M35.109,12l2.769,24H2.122l2.769-24H35.109 M36,11H4L1,37h38L36,11L36,11z"/>
	</g>
</g>
<rect x="11" y="21" style="fill:#778B9D;" width="17" height="1"/>
<g>
	<path style="fill:#FFEEA3;" d="M28,21c-1,0-1,1-1,1.5v5h2v-5C29,22,29,21,28,21z"/>
</g>
</svg>
