<?xml version="1.0" encoding="UTF-8"?>
<svg xmlns="http://www.w3.org/2000/svg" xmlns:xlink="http://www.w3.org/1999/xlink" width="40pt" height="40pt" viewBox="0 0 40 40" version="1.1">
<g id="surface7538346">
<path style=" stroke:none;fill-rule:nonzero;fill:rgb(54.901961%,14.117647%,83.921569%);fill-opacity:1;" d="M 16 2.398438 C 14.683594 2.398438 13.601562 3.484375 13.601562 4.800781 L 13.601562 7.199219 L 2.398438 7.199219 C 1.078125 7.199219 0 8.277344 0 9.601562 L 0 20 C 0 21.320312 1.078125 22.398438 2.398438 22.398438 L 37.601562 22.398438 C 38.921875 22.398438 40 21.320312 40 20 L 40 9.601562 C 40 8.277344 38.921875 7.199219 37.601562 7.199219 L 26.398438 7.199219 L 26.398438 4.800781 C 26.398438 3.484375 25.316406 2.398438 24 2.398438 Z M 16 4 L 24 4 C 24.449219 4 24.800781 4.351562 24.800781 4.800781 L 24.800781 7.199219 L 15.199219 7.199219 L 15.199219 4.800781 C 15.199219 4.351562 15.550781 4 16 4 Z M 20 17.601562 C 20.882812 17.601562 21.601562 18.316406 21.601562 19.199219 C 21.601562 20.085938 20.882812 20.800781 20 20.800781 C 19.117188 20.800781 18.398438 20.085938 18.398438 19.199219 C 18.398438 18.316406 19.117188 17.601562 20 17.601562 Z M 0 21.601562 L 0 35.199219 C 0 36.523438 1.078125 37.601562 2.398438 37.601562 L 37.601562 37.601562 C 38.921875 37.601562 40 36.523438 40 35.199219 L 40 21.601562 C 40 22.921875 38.921875 24 37.601562 24 L 2.398438 24 C 1.078125 24 0 22.921875 0 21.601562 Z M 0 21.601562 "/>
</g>
</svg>
